<svg width="174" height="102" viewBox="0 0 174 102" fill="none" xmlns="http://www.w3.org/2000/svg">
<path d="M173.826 1.37236V0.605469H0.785156V1.37236C1.8165 1.37236 2.65354 2.20939 2.65354 3.24074C2.65354 4.27324 1.8165 5.10913 0.785156 5.10913V6.99475C1.8165 6.99475 2.65354 7.83179 2.65354 8.86314C2.65354 9.89564 1.8165 10.7315 0.785156 10.7315V12.6172C1.8165 12.6172 2.65354 13.453 2.65354 14.4855C2.65354 15.5169 1.8165 16.3539 0.785156 16.3539V18.2396C1.8165 18.2396 2.65354 19.0754 2.65354 20.1079C2.65354 21.1393 1.8165 21.9763 0.785156 21.9763V23.862C1.8165 23.862 2.65354 24.6978 2.65354 25.7303C2.65354 26.7617 1.8165 27.5987 0.785156 27.5987V29.4844C1.8165 29.4844 2.65354 30.3214 2.65354 31.3527C2.65354 32.3841 1.8165 33.2211 0.785156 33.2211V35.1067C1.8165 35.1067 2.65354 35.9438 2.65354 36.9751C2.65354 38.0065 1.8165 38.8435 0.785156 38.8435V40.5222C6.47424 40.5222 11.0848 45.1339 11.0848 50.8218C11.0848 56.1959 6.96749 60.6042 1.71532 61.0744C1.44053 61.2342 1.12549 61.332 0.785156 61.332V63.2176C1.8165 63.2176 2.65354 64.0546 2.65354 65.086C2.65354 66.1185 1.8165 66.9543 0.785156 66.9543V68.84C1.8165 68.84 2.65354 69.677 2.65354 70.7084C2.65354 71.7397 1.8165 72.5768 0.785156 72.5768V74.4624C1.8165 74.4624 2.65354 75.2994 2.65354 76.3307C2.65354 77.3621 1.8165 78.1991 0.785156 78.1991V80.0848C1.8165 80.0848 2.65354 80.9218 2.65354 81.9532C2.65354 82.9845 1.8165 83.8215 0.785156 83.8215V85.7072C1.8165 85.7072 2.65354 86.5442 2.65354 87.5755C2.65354 88.6069 1.8165 89.4439 0.785156 89.4439V91.3296C1.8165 91.3296 2.65354 92.1666 2.65354 93.198C2.65354 94.2293 1.8165 95.0663 0.785156 95.0663V96.9519C1.8165 96.9519 2.65354 97.789 2.65354 98.8203C2.65354 99.8517 1.8165 100.689 0.785156 100.689V101.456H173.826V100.689C172.794 100.689 171.958 99.8517 171.958 98.8203C171.958 97.789 172.794 96.9519 173.826 96.9519V95.0663C172.794 95.0663 171.958 94.2293 171.958 93.198C171.958 92.1666 172.794 91.3296 173.826 91.3296V89.4439C172.794 89.4439 171.958 88.6069 171.958 87.5755C171.958 86.5442 172.794 85.7072 173.826 85.7072V83.8215C172.794 83.8215 171.958 82.9845 171.958 81.9532C171.958 80.9218 172.794 80.0848 173.826 80.0848V78.1991C172.794 78.1991 171.958 77.3621 171.958 76.3307C171.958 75.2994 172.794 74.4624 173.826 74.4624V72.5768C172.794 72.5768 171.958 71.7397 171.958 70.7084C171.958 69.677 172.794 68.84 173.826 68.84V66.9543C172.794 66.9543 171.958 66.1185 171.958 65.086C171.958 64.0546 172.794 63.2176 173.826 63.2176V61.332C173.816 61.332 173.807 61.3285 173.796 61.3285C168.121 61.3124 163.525 56.7087 163.525 51.03C163.525 45.3512 168.121 40.7487 173.795 40.7314C173.805 40.7314 173.816 40.728 173.826 40.728V38.8424C172.794 38.8424 171.958 38.0053 171.958 36.974C171.958 35.9426 172.794 35.1056 173.826 35.1056V33.22C172.794 33.22 171.958 32.3829 171.958 31.3516C171.958 30.3202 172.794 29.4832 173.826 29.4832V27.5976C172.794 27.5976 171.958 26.7605 171.958 25.7292C171.958 24.6967 172.794 23.8608 173.826 23.8608V21.9752C172.794 21.9752 171.958 21.1381 171.958 20.1068C171.958 19.0743 172.794 18.2384 173.826 18.2384V16.3528C172.794 16.3528 171.958 15.5157 171.958 14.4844C171.958 13.4519 172.794 12.616 173.826 12.616V10.7304C172.794 10.7304 171.958 9.8945 171.958 8.862C171.958 7.83065 172.794 6.99361 173.826 6.99361V5.10799C172.794 5.10799 171.958 4.2721 171.958 3.2396C171.958 2.2094 172.795 1.37236 173.826 1.37236Z" fill="#F9C025"/>
</svg>
