<svg width="228" height="103" viewBox="0 0 228 103" fill="none" xmlns="http://www.w3.org/2000/svg">
<path d="M170.395 99.9998C170.395 98.9799 171.223 98.1522 172.243 98.1522V96.2877C171.223 96.2877 170.395 95.46 170.395 94.4401C170.395 93.4203 171.223 92.5926 172.243 92.5926V90.728C171.223 90.728 170.395 89.9003 170.395 88.8805C170.395 87.8606 171.223 87.0329 172.243 87.0329V85.1684C171.223 85.1684 170.395 84.3407 170.395 83.3208C170.395 82.301 171.223 81.4733 172.243 81.4733V79.6087C171.223 79.6087 170.395 78.781 170.395 77.7612C170.395 76.7413 171.223 75.9136 172.243 75.9136V74.0491C171.223 74.0491 170.395 73.2214 170.395 72.2015C170.395 71.1817 171.223 70.354 172.243 70.354V68.4894C171.223 68.4894 170.395 67.6617 170.395 66.6419C170.395 65.622 171.223 64.7943 172.243 64.7943V62.9298C171.223 62.9298 170.395 62.1021 170.395 61.0822C170.395 60.0624 171.223 59.2347 172.243 59.2347V57.3701C171.223 57.3701 170.395 56.5424 170.395 55.5226C170.395 54.5027 171.223 53.675 172.243 53.675V51.8105C171.223 51.8105 170.395 50.9828 170.395 49.9629C170.395 48.9431 171.223 48.1154 172.243 48.1154V46.2508C171.223 46.2508 170.395 45.4242 170.395 44.4032C170.395 43.3834 171.223 42.5557 172.243 42.5557V40.6911C171.223 40.6911 170.395 39.8635 170.395 38.8436C170.395 37.8238 171.223 36.9961 172.243 36.9961V35.1315C171.223 35.1315 170.395 34.3049 170.395 33.2839C170.395 32.2641 171.223 31.4364 172.243 31.4364V29.5718C171.223 29.5718 170.395 28.7453 170.395 27.7243C170.395 26.7045 171.223 25.8768 172.243 25.8768V24.0122C171.223 24.0122 170.395 23.1845 170.395 22.1646C170.395 21.1437 171.223 20.3171 172.243 20.3171V18.4525C171.223 18.4525 170.395 17.626 170.395 16.605C170.395 15.5852 171.223 14.7575 172.243 14.7575V12.8929C171.223 12.8929 170.395 12.0652 170.395 11.0453C170.395 10.0244 171.223 9.19781 172.243 9.19781V7.33322C171.223 7.33322 170.395 6.50552 170.395 5.48569C170.395 4.46471 171.223 3.63815 172.243 3.63815V2.87982H1.13281V3.63815C2.15379 3.63815 2.98035 4.46471 2.98035 5.48569C2.98035 6.50552 2.15379 7.33322 1.13281 7.33322V9.19781C2.15379 9.19781 2.98035 10.0244 2.98035 11.0453C2.98035 12.0652 2.15379 12.8929 1.13281 12.8929V14.7575C2.15379 14.7575 2.98035 15.5852 2.98035 16.605C2.98035 17.626 2.15379 18.4525 1.13281 18.4525V20.3171C2.15379 20.3171 2.98035 21.1437 2.98035 22.1646C2.98035 23.1845 2.15379 24.0122 1.13281 24.0122V25.8768C2.15379 25.8768 2.98035 26.7045 2.98035 27.7243C2.98035 28.7453 2.15379 29.5718 1.13281 29.5718V31.4364C2.15379 31.4364 2.98035 32.2641 2.98035 33.2839C2.98035 34.3049 2.15379 35.1315 1.13281 35.1315V36.9961C2.15379 36.9961 2.98035 37.8238 2.98035 38.8436C2.98035 39.8635 2.15379 40.6911 1.13281 40.6911V42.5557C2.15379 42.5557 2.98035 43.3834 2.98035 44.4032C2.98035 45.4242 2.15379 46.2508 1.13281 46.2508V48.1154C2.15379 48.1154 2.98035 48.9431 2.98035 49.9629C2.98035 50.9828 2.15379 51.8105 1.13281 51.8105V53.675C2.15379 53.675 2.98035 54.5027 2.98035 55.5226C2.98035 56.5424 2.15379 57.3701 1.13281 57.3701V59.2347C2.15379 59.2347 2.98035 60.0624 2.98035 61.0822C2.98035 62.1021 2.15379 62.9298 1.13281 62.9298V64.7943C2.15379 64.7943 2.98035 65.622 2.98035 66.6419C2.98035 67.6617 2.15379 68.4894 1.13281 68.4894V70.354C2.15379 70.354 2.98035 71.1817 2.98035 72.2015C2.98035 73.2214 2.15379 74.0491 1.13281 74.0491V75.9136C2.15379 75.9136 2.98035 76.7413 2.98035 77.7612C2.98035 78.781 2.15379 79.6087 1.13281 79.6087V81.4733C2.15379 81.4733 2.98035 82.301 2.98035 83.3208C2.98035 84.3407 2.15379 85.1684 1.13281 85.1684V87.0329C2.15379 87.0329 2.98035 87.8606 2.98035 88.8805C2.98035 89.9003 2.15379 90.728 1.13281 90.728V92.5926C2.15379 92.5926 2.98035 93.4203 2.98035 94.4401C2.98035 95.46 2.15379 96.2877 1.13281 96.2877V98.1522C2.15379 98.1522 2.98035 98.9799 2.98035 99.9998C2.98035 101.021 2.15379 101.847 1.13281 101.847V102.606H172.243V101.847C171.222 101.847 170.395 101.021 170.395 99.9998Z" fill="#999999"/>
<path d="M225.935 99.9998C225.935 98.9799 226.763 98.1522 227.782 98.1522V96.2877C226.763 96.2877 225.935 95.46 225.935 94.4401C225.935 93.4203 226.763 92.5926 227.782 92.5926V90.728C226.763 90.728 225.935 89.9003 225.935 88.8805C225.935 87.8606 226.763 87.0329 227.782 87.0329V85.1684C226.763 85.1684 225.935 84.3407 225.935 83.3208C225.935 82.301 226.763 81.4733 227.782 81.4733V79.6087C226.763 79.6087 225.935 78.781 225.935 77.7612C225.935 76.7413 226.763 75.9136 227.782 75.9136V74.0491C226.763 74.0491 225.935 73.2214 225.935 72.2015C225.935 71.1817 226.763 70.354 227.782 70.354V68.4894C226.763 68.4894 225.935 67.6617 225.935 66.6419C225.935 65.622 226.763 64.7943 227.782 64.7943V62.9298C226.763 62.9298 225.935 62.1021 225.935 61.0822C225.935 60.0624 226.763 59.2347 227.782 59.2347V57.3701C226.763 57.3701 225.935 56.5424 225.935 55.5226C225.935 54.5027 226.763 53.675 227.782 53.675V51.8105C226.763 51.8105 225.935 50.9828 225.935 49.9629C225.935 48.9431 226.763 48.1154 227.782 48.1154V46.2508C226.763 46.2508 225.935 45.4231 225.935 44.4032C225.935 43.3834 226.763 42.5557 227.782 42.5557V40.6911C226.763 40.6911 225.935 39.8635 225.935 38.8436C225.935 37.8238 226.763 36.9961 227.782 36.9961V35.1315C226.763 35.1315 225.935 34.3049 225.935 33.2839C225.935 32.2641 226.763 31.4364 227.782 31.4364V29.5718C226.763 29.5718 225.935 28.7453 225.935 27.7243C225.935 26.7045 226.763 25.8768 227.782 25.8768V24.0122C226.763 24.0122 225.935 23.1856 225.935 22.1646C225.935 21.1437 226.763 20.3171 227.782 20.3171V18.4525C226.763 18.4525 225.935 17.626 225.935 16.605C225.935 15.5852 226.763 14.7575 227.782 14.7575V12.8929C226.763 12.8929 225.935 12.0652 225.935 11.0453C225.935 10.0244 226.763 9.19781 227.782 9.19781V7.33322C226.763 7.33322 225.935 6.50552 225.935 5.48569C225.935 4.46471 226.763 3.63815 227.782 3.63815V2.87982H172.641V3.63815C173.66 3.63815 174.488 4.46471 174.488 5.48569C174.488 6.50552 173.66 7.33322 172.641 7.33322V9.19781C173.66 9.19781 174.488 10.0244 174.488 11.0453C174.488 12.0652 173.66 12.8929 172.641 12.8929V14.7575C173.66 14.7575 174.488 15.5852 174.488 16.605C174.488 17.626 173.66 18.4525 172.641 18.4525V20.3171C173.66 20.3171 174.488 21.1437 174.488 22.1646C174.488 23.1845 173.66 24.0122 172.641 24.0122V25.8768C173.66 25.8768 174.488 26.7045 174.488 27.7243C174.488 28.7453 173.66 29.5718 172.641 29.5718V31.4364C173.66 31.4364 174.488 32.2641 174.488 33.2839C174.488 34.3049 173.66 35.1315 172.641 35.1315V36.9961C173.66 36.9961 174.488 37.8238 174.488 38.8436C174.488 39.8635 173.66 40.6911 172.641 40.6911V42.5557C173.66 42.5557 174.488 43.3834 174.488 44.4032C174.488 45.4242 173.66 46.2508 172.641 46.2508V48.1154C173.66 48.1154 174.488 48.9431 174.488 49.9629C174.488 50.9828 173.66 51.8105 172.641 51.8105V53.675C173.66 53.675 174.488 54.5027 174.488 55.5226C174.488 56.5424 173.66 57.3701 172.641 57.3701V59.2347C173.66 59.2347 174.488 60.0624 174.488 61.0822C174.488 62.1021 173.66 62.9298 172.641 62.9298V64.7943C173.66 64.7943 174.488 65.622 174.488 66.6419C174.488 67.6617 173.66 68.4894 172.641 68.4894V70.354C173.66 70.354 174.488 71.1817 174.488 72.2015C174.488 73.2214 173.66 74.0491 172.641 74.0491V75.9136C173.66 75.9136 174.488 76.7413 174.488 77.7612C174.488 78.781 173.66 79.6087 172.641 79.6087V81.4733C173.66 81.4733 174.488 82.301 174.488 83.3208C174.488 84.3407 173.66 85.1684 172.641 85.1684V87.0329C173.66 87.0329 174.488 87.8606 174.488 88.8805C174.488 89.9003 173.66 90.728 172.641 90.728V92.5926C173.66 92.5926 174.488 93.4203 174.488 94.4401C174.488 95.46 173.66 96.2877 172.641 96.2877V98.1522C173.66 98.1522 174.488 98.9799 174.488 99.9998C174.488 101.021 173.66 101.847 172.641 101.847V102.606H227.782V101.847C226.761 101.847 225.935 101.021 225.935 99.9998Z" fill="#999999"/>
<path d="M169.262 97.7254C169.262 96.7056 170.09 95.8779 171.11 95.8779V94.0133C170.09 94.0133 169.262 93.1856 169.262 92.1658C169.262 91.1459 170.09 90.3182 171.11 90.3182V88.4536C170.09 88.4536 169.262 87.6259 169.262 86.6061C169.262 85.5863 170.09 84.7586 171.11 84.7586V82.894C170.09 82.894 169.262 82.0663 169.262 81.0465C169.262 80.0266 170.09 79.1989 171.11 79.1989V77.3343C170.09 77.3343 169.262 76.5066 169.262 75.4868C169.262 74.467 170.09 73.6393 171.11 73.6393V71.7747C170.09 71.7747 169.262 70.947 169.262 69.9272C169.262 68.9073 170.09 68.0796 171.11 68.0796V66.215C170.09 66.215 169.262 65.3873 169.262 64.3675C169.262 63.3477 170.09 62.52 171.11 62.52V60.6554C170.09 60.6554 169.262 59.8277 169.262 58.8079C169.262 57.788 170.09 56.9603 171.11 56.9603V55.0957C170.09 55.0957 169.262 54.268 169.262 53.2482C169.262 52.2284 170.09 51.4007 171.11 51.4007V49.5361C170.09 49.5361 169.262 48.7084 169.262 47.6886C169.262 46.6687 170.09 45.841 171.11 45.841V43.9764C170.09 43.9764 169.262 43.1499 169.262 42.1289C169.262 41.1091 170.09 40.2814 171.11 40.2814V38.4168C170.09 38.4168 169.262 37.5891 169.262 36.5693C169.262 35.5494 170.09 34.7217 171.11 34.7217V32.8571C170.09 32.8571 169.262 32.0306 169.262 31.0096C169.262 29.9898 170.09 29.1621 171.11 29.1621V27.2975C170.09 27.2975 169.262 26.4709 169.262 25.4499C169.262 24.4301 170.09 23.6024 171.11 23.6024V21.7378C170.09 21.7378 169.262 20.9101 169.262 19.8903C169.262 18.8693 170.09 18.0428 171.11 18.0428V16.1782C170.09 16.1782 169.262 15.3516 169.262 14.3306C169.262 13.3108 170.09 12.4831 171.11 12.4831V10.6185C170.09 10.6185 169.262 9.79082 169.262 8.77099C169.262 7.75001 170.09 6.92345 171.11 6.92345V5.05887C170.09 5.05887 169.262 4.23117 169.262 3.21133C169.262 2.19036 170.09 1.3638 171.11 1.3638V0.605469H0V1.3638C1.02097 1.3638 1.84753 2.19036 1.84753 3.21133C1.84753 4.23117 1.02097 5.05887 0 5.05887V6.92345C1.02097 6.92345 1.84753 7.75001 1.84753 8.77099C1.84753 9.79082 1.02097 10.6185 0 10.6185V12.4831C1.02097 12.4831 1.84753 13.3108 1.84753 14.3306C1.84753 15.3516 1.02097 16.1782 0 16.1782V18.0428C1.02097 18.0428 1.84753 18.8693 1.84753 19.8903C1.84753 20.9101 1.02097 21.7378 0 21.7378V23.6024C1.02097 23.6024 1.84753 24.4301 1.84753 25.4499C1.84753 26.4709 1.02097 27.2975 0 27.2975V29.1621C1.02097 29.1621 1.84753 29.9898 1.84753 31.0096C1.84753 32.0306 1.02097 32.8571 0 32.8571V34.7217C1.02097 34.7217 1.84753 35.5494 1.84753 36.5693C1.84753 37.5891 1.02097 38.4168 0 38.4168V40.2814C1.02097 40.2814 1.84753 41.1091 1.84753 42.1289C1.84753 43.1499 1.02097 43.9764 0 43.9764V45.841C1.02097 45.841 1.84753 46.6687 1.84753 47.6886C1.84753 48.7084 1.02097 49.5361 0 49.5361V51.4007C1.02097 51.4007 1.84753 52.2284 1.84753 53.2482C1.84753 54.268 1.02097 55.0957 0 55.0957V56.9603C1.02097 56.9603 1.84753 57.788 1.84753 58.8079C1.84753 59.8277 1.02097 60.6554 0 60.6554V62.52C1.02097 62.52 1.84753 63.3477 1.84753 64.3675C1.84753 65.3873 1.02097 66.215 0 66.215V68.0796C1.02097 68.0796 1.84753 68.9073 1.84753 69.9272C1.84753 70.947 1.02097 71.7747 0 71.7747V73.6393C1.02097 73.6393 1.84753 74.467 1.84753 75.4868C1.84753 76.5066 1.02097 77.3343 0 77.3343V79.1989C1.02097 79.1989 1.84753 80.0266 1.84753 81.0465C1.84753 82.0663 1.02097 82.894 0 82.894V84.7586C1.02097 84.7586 1.84753 85.5863 1.84753 86.6061C1.84753 87.6259 1.02097 88.4536 0 88.4536V90.3182C1.02097 90.3182 1.84753 91.1459 1.84753 92.1658C1.84753 93.1856 1.02097 94.0133 0 94.0133V95.8779C1.02097 95.8779 1.84753 96.7056 1.84753 97.7254C1.84753 98.7464 1.02097 99.5729 0 99.5729V100.331H171.11V99.5729C170.089 99.5729 169.262 98.7464 169.262 97.7254Z" fill="#2A617C"/>
<path d="M224.802 97.7254C224.802 96.7056 225.63 95.8779 226.65 95.8779V94.0133C225.63 94.0133 224.802 93.1856 224.802 92.1658C224.802 91.1459 225.63 90.3182 226.65 90.3182V88.4536C225.63 88.4536 224.802 87.6259 224.802 86.6061C224.802 85.5863 225.63 84.7586 226.65 84.7586V82.894C225.63 82.894 224.802 82.0663 224.802 81.0465C224.802 80.0266 225.63 79.1989 226.65 79.1989V77.3343C225.63 77.3343 224.802 76.5066 224.802 75.4868C224.802 74.467 225.63 73.6393 226.65 73.6393V71.7747C225.63 71.7747 224.802 70.947 224.802 69.9272C224.802 68.9073 225.63 68.0796 226.65 68.0796V66.215C225.63 66.215 224.802 65.3873 224.802 64.3675C224.802 63.3477 225.63 62.52 226.65 62.52V60.6554C225.63 60.6554 224.802 59.8277 224.802 58.8079C224.802 57.788 225.63 56.9603 226.65 56.9603V55.0957C225.63 55.0957 224.802 54.268 224.802 53.2482C224.802 52.2284 225.63 51.4007 226.65 51.4007V49.5361C225.63 49.5361 224.802 48.7084 224.802 47.6886C224.802 46.6687 225.63 45.841 226.65 45.841V43.9764C225.63 43.9764 224.802 43.1487 224.802 42.1289C224.802 41.1091 225.63 40.2814 226.65 40.2814V38.4168C225.63 38.4168 224.802 37.5891 224.802 36.5693C224.802 35.5494 225.63 34.7217 226.65 34.7217V32.8571C225.63 32.8571 224.802 32.0306 224.802 31.0096C224.802 29.9898 225.63 29.1621 226.65 29.1621V27.2975C225.63 27.2975 224.802 26.4709 224.802 25.4499C224.802 24.4301 225.63 23.6024 226.65 23.6024V21.7378C225.63 21.7378 224.802 20.9113 224.802 19.8903C224.802 18.8693 225.63 18.0428 226.65 18.0428V16.1782C225.63 16.1782 224.802 15.3516 224.802 14.3306C224.802 13.3108 225.63 12.4831 226.65 12.4831V10.6185C225.63 10.6185 224.802 9.79082 224.802 8.77099C224.802 7.75001 225.63 6.92345 226.65 6.92345V5.05887C225.63 5.05887 224.802 4.23117 224.802 3.21133C224.802 2.19036 225.63 1.3638 226.65 1.3638V0.605469H171.508V1.3638C172.528 1.3638 173.355 2.19036 173.355 3.21133C173.355 4.23117 172.528 5.05887 171.508 5.05887V6.92345C172.528 6.92345 173.355 7.75001 173.355 8.77099C173.355 9.79082 172.528 10.6185 171.508 10.6185V12.4831C172.528 12.4831 173.355 13.3108 173.355 14.3306C173.355 15.3516 172.528 16.1782 171.508 16.1782V18.0428C172.528 18.0428 173.355 18.8693 173.355 19.8903C173.355 20.9101 172.528 21.7378 171.508 21.7378V23.6024C172.528 23.6024 173.355 24.4301 173.355 25.4499C173.355 26.4709 172.528 27.2975 171.508 27.2975V29.1621C172.528 29.1621 173.355 29.9898 173.355 31.0096C173.355 32.0306 172.528 32.8571 171.508 32.8571V34.7217C172.528 34.7217 173.355 35.5494 173.355 36.5693C173.355 37.5891 172.528 38.4168 171.508 38.4168V40.2814C172.528 40.2814 173.355 41.1091 173.355 42.1289C173.355 43.1499 172.528 43.9764 171.508 43.9764V45.841C172.528 45.841 173.355 46.6687 173.355 47.6886C173.355 48.7084 172.528 49.5361 171.508 49.5361V51.4007C172.528 51.4007 173.355 52.2284 173.355 53.2482C173.355 54.268 172.528 55.0957 171.508 55.0957V56.9603C172.528 56.9603 173.355 57.788 173.355 58.8079C173.355 59.8277 172.528 60.6554 171.508 60.6554V62.52C172.528 62.52 173.355 63.3477 173.355 64.3675C173.355 65.3873 172.528 66.215 171.508 66.215V68.0796C172.528 68.0796 173.355 68.9073 173.355 69.9272C173.355 70.947 172.528 71.7747 171.508 71.7747V73.6393C172.528 73.6393 173.355 74.467 173.355 75.4868C173.355 76.5066 172.528 77.3343 171.508 77.3343V79.1989C172.528 79.1989 173.355 80.0266 173.355 81.0465C173.355 82.0663 172.528 82.894 171.508 82.894V84.7586C172.528 84.7586 173.355 85.5863 173.355 86.6061C173.355 87.6259 172.528 88.4536 171.508 88.4536V90.3182C172.528 90.3182 173.355 91.1459 173.355 92.1658C173.355 93.1856 172.528 94.0133 171.508 94.0133V95.8779C172.528 95.8779 173.355 96.7056 173.355 97.7254C173.355 98.7464 172.528 99.5729 171.508 99.5729V100.331H226.65V99.5729C225.629 99.5729 224.802 98.7464 224.802 97.7254Z" fill="#2A617C"/>
<path d="M158.362 96.6583H12.8334C9.07123 96.6583 6.01172 93.5988 6.01172 89.8367V11.1033C6.01172 7.34119 9.07123 4.28168 12.8334 4.28168H158.362C162.124 4.28168 165.184 7.34119 165.184 11.1033V89.8367C165.184 93.5977 162.124 96.6583 158.362 96.6583ZM12.8334 6.55556C10.3253 6.55556 8.28561 8.59524 8.28561 11.1033V89.8367C8.28561 92.3448 10.3253 94.3844 12.8334 94.3844H158.362C160.87 94.3844 162.91 92.3448 162.91 89.8367V11.1033C162.91 8.59524 160.87 6.55556 158.362 6.55556H12.8334Z" fill="#61C8D1"/>
<path d="M56.9301 6.27161H54.6562V95.5217H56.9301V6.27161Z" fill="#61C8D1"/>
<path d="M162.911 48.9597H56.8906V51.2336H162.911V48.9597Z" fill="#61C8D1"/>
<path d="M213.109 94.3349H185.064C181.925 94.3349 179.379 91.7892 179.379 88.6501V12.2919C179.379 9.15279 181.925 6.60718 185.064 6.60718H213.109C216.248 6.60718 218.793 9.15279 218.793 12.2919V88.6501C218.793 91.7892 216.248 94.3349 213.109 94.3349Z" fill="#FCEEBF"/>
<path d="M188.145 67.4509V60.9885H192.035V67.4509H188.145ZM188.145 68.1171H201.615V71.8076H188.145V68.1171ZM196.925 67.4509C196.765 67.1405 196.641 66.8199 196.552 66.4913C196.464 66.1627 196.419 65.8159 196.419 65.4521C196.419 64.7506 196.51 64.131 196.692 63.5932C196.874 63.0554 197.132 62.5893 197.465 62.1948C197.798 61.7991 198.192 61.466 198.644 61.1954C199.097 60.9248 199.592 60.7065 200.13 60.5428C200.668 60.3779 201.241 60.2608 201.849 60.1892C202.458 60.1176 203.077 60.0823 203.708 60.0823C204.783 60.0823 205.829 60.1642 206.846 60.329C207.864 60.4939 208.773 60.7952 209.577 61.2352C210.381 61.6752 211.031 62.2766 211.529 63.0407C212.027 63.8047 212.293 64.7859 212.328 65.9853H208.878C208.798 65.5237 208.578 65.1633 208.218 64.9064C207.859 64.6483 207.428 64.4562 206.926 64.3265C206.424 64.1981 205.884 64.1196 205.307 64.0935C204.729 64.0673 204.183 64.0537 203.668 64.0537C203.198 64.0537 202.729 64.0776 202.263 64.1265C201.797 64.1753 201.377 64.2754 201.005 64.4266C200.632 64.5778 200.329 64.7881 200.098 65.0599C199.868 65.3305 199.752 65.6932 199.752 66.1457C199.752 66.3856 199.803 66.6163 199.905 66.838C200.007 67.0597 200.143 67.2644 200.311 67.4509H196.925ZM212.314 66.6516C212.26 67.7442 212.025 68.6481 211.608 69.3632C211.19 70.0783 210.641 70.6491 209.962 71.0754C209.283 71.5018 208.492 71.8019 207.591 71.9748C206.689 72.1476 205.723 72.2351 204.693 72.2351L204.667 68.1978C205.279 68.1978 205.836 68.1797 206.339 68.1444C206.84 68.1092 207.276 68.0375 207.644 67.9306C208.013 67.8238 208.304 67.6691 208.516 67.4645C208.73 67.2598 208.858 66.9892 208.903 66.6516H212.314Z" fill="#2A617C"/>
<path d="M212.328 51.9689C212.302 53.0262 212.083 53.9301 211.675 54.6805C211.267 55.4309 210.727 56.0459 210.056 56.5257C209.385 57.0055 208.61 57.3591 207.731 57.5854C206.852 57.8116 205.919 57.9253 204.933 57.9253H195.127C194.123 57.9253 193.179 57.8162 192.296 57.599C191.413 57.3819 190.635 57.0328 189.964 56.553C189.293 56.0733 188.758 55.4559 188.359 54.701C187.959 53.946 187.746 53.0353 187.719 51.97H191.263C191.316 52.3873 191.472 52.7204 191.729 52.9694C191.987 53.2184 192.299 53.4071 192.668 53.5356C193.036 53.6641 193.43 53.7471 193.847 53.7823C194.264 53.8175 194.655 53.8357 195.019 53.8357H205.039C205.403 53.8357 205.794 53.813 206.211 53.7687C206.628 53.7243 207.02 53.6356 207.383 53.5026C207.747 53.3696 208.061 53.1809 208.322 52.9364C208.584 52.692 208.742 52.3702 208.795 51.97H212.328V51.9689ZM208.772 51.3026C208.7 50.9297 208.532 50.625 208.266 50.3897C208 50.1543 207.686 49.9724 207.326 49.8439C206.967 49.7155 206.585 49.6291 206.18 49.5847C205.777 49.5404 205.397 49.5177 205.041 49.5177H195.021C194.665 49.5177 194.282 49.5381 193.868 49.5779C193.456 49.6177 193.069 49.6996 192.709 49.8246C192.35 49.9485 192.038 50.1293 191.777 50.3647C191.515 50.6 191.348 50.9127 191.277 51.3038H187.734C187.778 50.2555 188.002 49.363 188.407 48.6263C188.81 47.8895 189.346 47.2847 190.012 46.814C190.678 46.3433 191.449 45.9988 192.323 45.7816C193.198 45.5645 194.133 45.4553 195.128 45.4553H204.934C205.903 45.4553 206.822 45.569 207.693 45.7953C208.563 46.0215 209.331 46.3751 209.997 46.8549C210.663 47.3347 211.203 47.943 211.616 48.6797C212.029 49.4164 212.262 50.2919 212.315 51.3049H208.772V51.3026Z" fill="#2A617C"/>
<path d="M187.773 29.1199V26.8949L211.889 34.5158V36.7272L187.773 29.1199ZM188.133 38.0858C188.177 37.2865 188.35 36.6112 188.652 36.0609C188.955 35.5106 189.37 35.0638 189.898 34.7216C190.427 34.3794 191.056 34.1327 191.783 33.9826C192.512 33.8314 193.321 33.7564 194.209 33.7564H195.008C195.879 33.7564 196.687 33.8314 197.433 33.9826C198.179 34.1338 198.828 34.3783 199.378 34.7159C199.928 35.0536 200.371 35.4981 200.704 36.0484C201.037 36.5987 201.226 37.2786 201.27 38.087L198.792 38.1006C198.729 37.8346 198.587 37.6208 198.365 37.4605C198.144 37.3002 197.866 37.1786 197.533 37.0944C197.2 37.0103 196.818 36.9546 196.387 36.9273C195.956 36.9011 195.492 36.8875 194.994 36.8875H194.261C193.772 36.8875 193.317 36.8989 192.895 36.9205C192.474 36.9432 192.105 36.9932 191.789 37.074C191.474 37.1535 191.216 37.274 191.016 37.4332C190.816 37.5935 190.685 37.8107 190.623 38.0858H188.133ZM201.27 38.7657C201.226 39.5741 201.037 40.2529 200.704 40.8043C200.371 41.3557 199.928 41.7991 199.378 42.1368C198.828 42.4744 198.179 42.7166 197.433 42.8632C196.687 43.0099 195.879 43.0827 195.008 43.0827H194.209C193.33 43.0827 192.526 43.0099 191.797 42.8632C191.068 42.7166 190.441 42.4722 189.912 42.1299C189.383 41.7877 188.966 41.342 188.659 40.7906C188.352 40.2403 188.177 39.565 188.133 38.7657L190.611 38.7521C190.665 39.0272 190.793 39.2478 190.998 39.4115C191.202 39.5764 191.462 39.7003 191.778 39.7844C192.093 39.8686 192.462 39.9243 192.884 39.9504C193.306 39.9766 193.762 39.9902 194.249 39.9902H194.995C195.493 39.9902 195.957 39.9743 196.388 39.9436C196.819 39.9129 197.201 39.8549 197.534 39.7708C197.867 39.6866 198.145 39.5638 198.366 39.4047C198.588 39.2444 198.73 39.0318 198.793 38.7646H201.27V38.7657ZM198.819 24.7631C198.863 23.9639 199.036 23.2885 199.338 22.7382C199.641 22.188 200.056 21.7411 200.585 21.3989C201.113 21.0567 201.742 20.81 202.47 20.6599C203.198 20.5087 204.007 20.4337 204.895 20.4337H205.694C206.565 20.4337 207.373 20.5087 208.119 20.6599C208.865 20.8111 209.514 21.0556 210.064 21.3932C210.615 21.7309 211.057 22.1754 211.39 22.7257C211.723 23.276 211.912 23.9559 211.956 24.7643L209.478 24.7779C209.415 24.5119 209.273 24.2981 209.051 24.1378C208.83 23.9775 208.551 23.8558 208.219 23.7717C207.886 23.6876 207.504 23.6319 207.073 23.6057C206.642 23.5796 206.178 23.5659 205.68 23.5659H204.947C204.458 23.5659 204.003 23.5773 203.581 23.5989C203.16 23.6216 202.791 23.6717 202.475 23.7524C202.16 23.832 201.902 23.9525 201.702 24.1117C201.502 24.272 201.371 24.4891 201.309 24.7643L198.819 24.7631ZM211.955 25.4419C211.911 26.2503 211.722 26.9301 211.389 27.4804C211.056 28.0307 210.614 28.4752 210.063 28.8129C209.513 29.1506 208.864 29.3928 208.118 29.5394C207.372 29.6861 206.564 29.7588 205.693 29.7588H204.894C204.015 29.7588 203.211 29.6849 202.482 29.5394C201.753 29.3928 201.126 29.1483 200.597 28.8061C200.068 28.4639 199.651 28.0182 199.344 27.4668C199.038 26.9165 198.862 26.2412 198.818 25.4419L201.296 25.4282C201.35 25.7034 201.478 25.9239 201.683 26.0877C201.887 26.2525 202.147 26.3765 202.463 26.4606C202.778 26.5447 203.147 26.6004 203.569 26.6266C203.991 26.6527 204.446 26.6664 204.934 26.6664H205.68C206.178 26.6664 206.642 26.6505 207.073 26.6198C207.504 26.5891 207.886 26.5311 208.219 26.4469C208.552 26.3628 208.83 26.24 209.051 26.0808C209.273 25.9205 209.415 25.7079 209.478 25.4407H211.955V25.4419Z" fill="#2A617C"/>
<path d="M89.4265 67.5393C89.4265 67.6462 89.5424 67.7212 89.7721 67.7644C90.0017 67.8076 90.3065 67.8474 90.6862 67.8838C91.0659 67.9202 91.498 67.9645 91.9812 68.018C92.4644 68.0714 92.9567 68.1578 93.4603 68.2783C93.9629 68.3977 94.4563 68.5648 94.9395 68.7774C95.4227 68.9912 95.8536 69.2732 96.2333 69.6267C96.6131 69.9792 96.9178 70.4158 97.1486 70.9354C97.3782 71.455 97.4931 72.0814 97.4931 72.8136C97.4931 73.34 97.476 73.8585 97.443 74.3667C97.4101 74.8772 97.3203 75.3604 97.1736 75.8163C97.0269 76.2722 96.8041 76.694 96.5039 77.0794C96.2038 77.466 95.7877 77.7991 95.2544 78.0788C94.7212 78.3585 94.055 78.579 93.2557 78.7382C92.4564 78.8985 91.4809 78.9781 90.3281 78.9781C89.1752 78.9781 88.186 78.9133 87.3606 78.7826C86.5341 78.6541 85.8383 78.4813 85.2721 78.2687C84.7059 78.0549 84.2511 77.8093 83.9089 77.5296C83.5655 77.2499 83.3029 76.9589 83.1198 76.6565C82.9368 76.3541 82.8163 76.0482 82.7606 75.7412C82.7037 75.4342 82.6753 75.1489 82.6753 74.8817V73.2627H89.4299V76.2608H90.7385V73.0626C90.7385 72.9625 90.6236 72.8784 90.394 72.8068C90.1643 72.7374 89.8585 72.6624 89.4788 72.5828L88.1792 72.3134C87.6994 72.2201 87.2094 72.0996 86.7058 71.9484C86.2032 71.7994 85.7098 71.6164 85.2266 71.3992C84.7434 71.1832 84.3113 70.9138 83.9316 70.5943C83.5519 70.2748 83.2472 69.9008 83.0175 69.4698C82.7879 69.0412 82.6719 68.5364 82.6719 67.9566C82.6719 67.2369 82.7174 66.5968 82.8072 66.0329C82.897 65.4712 83.0539 64.9789 83.2767 64.5594C83.4996 64.1399 83.7974 63.7851 84.1704 63.4952C84.5433 63.2064 85.0117 62.9711 85.5745 62.7915C86.1373 62.6118 86.8069 62.4822 87.5835 62.4015C88.36 62.3219 89.2604 62.2821 90.286 62.2821C91.3649 62.2821 92.2802 62.3412 93.0294 62.456C93.7787 62.5743 94.4029 62.73 94.902 62.9267C95.4011 63.1234 95.7933 63.3497 96.0764 63.6067C96.3595 63.8625 96.571 64.1342 96.7108 64.4207C96.8507 64.7072 96.9371 64.9971 96.9712 65.2905C97.0053 65.5838 97.0212 65.8635 97.0212 66.1295V67.3188H90.7362V64.9607H89.4276V67.5393H89.4265Z" fill="#61C8D1"/>
<path d="M105.125 75.1137L104.656 78.5917H98L101.487 62.6528H110.62L114.107 78.5917H107.451L106.982 75.1137H105.125ZM105.425 72.8149H106.684L106.054 68.5877L105.425 72.8149Z" fill="#61C8D1"/>
<path d="M115.195 78.5904V62.6516H121.95V76.1517H125.577V78.5904H115.195Z" fill="#61C8D1"/>
<path d="M137.027 62.6527V65.0608H133.4V68.9878H136.778V71.4857H133.4V76.1517H137.027V78.5904H126.645V62.6516H137.027V62.6527Z" fill="#61C8D1"/>
<path d="M105.049 32.0625C105.049 32.482 105.039 32.889 105.02 33.2813C104.999 33.6747 104.929 34.0407 104.806 34.3807C104.683 34.7206 104.49 35.0299 104.226 35.3096C103.964 35.5893 103.588 35.8292 103.102 36.0293C102.615 36.2294 101.998 36.3851 101.249 36.4931C100.499 36.6046 99.5773 36.6591 98.4847 36.6591H90.2305V20.7203H98.4847C99.4977 20.7203 100.353 20.7772 101.048 20.8897C101.744 21.0034 102.318 21.1592 102.772 21.3593C103.225 21.5594 103.574 21.7925 103.817 22.0585C104.06 22.3246 104.238 22.6077 104.351 22.9078C104.465 23.208 104.531 23.5195 104.551 23.8412C104.571 24.1653 104.581 24.4802 104.581 24.786C104.581 25.2192 104.534 25.591 104.441 25.9002C104.348 26.2106 104.225 26.4744 104.072 26.6904C103.918 26.9064 103.745 27.085 103.552 27.2248C103.366 27.3646 103.169 27.4817 102.962 27.575C102.496 27.7944 101.963 27.9252 101.363 27.9649C102.05 28.0047 102.663 28.148 103.202 28.3947C103.435 28.5016 103.661 28.6369 103.882 28.7983C104.101 28.9632 104.298 29.1837 104.472 29.4634C104.645 29.7431 104.784 30.0922 104.891 30.5083C104.996 30.9255 105.049 31.4428 105.049 32.0625ZM96.985 26.8564H98.2936V23.0295H96.985V26.8564ZM96.985 34.3318H98.2936V29.1656H96.985V34.3318Z" fill="#61C8D1"/>
<path d="M112.969 20.7216V36.6604H106.215V20.7216H112.969Z" fill="#61C8D1"/>
<path d="M129.609 28.4151V36.659H124.393L123.823 35.6198C123.67 35.8859 123.457 36.1258 123.183 36.3396C122.95 36.5192 122.635 36.6829 122.239 36.8296C121.844 36.9763 121.345 37.049 120.746 37.049C119.972 37.049 119.289 36.9865 118.692 36.8648C118.096 36.7409 117.578 36.5783 117.138 36.3737C116.698 36.1713 116.328 35.9337 116.028 35.6653C115.728 35.3947 115.487 35.1128 115.304 34.8149C115.121 34.5193 114.989 34.2226 114.908 33.927C114.829 33.6302 114.789 33.3482 114.789 33.0822V24.3982C114.789 24.1117 114.812 23.8116 114.855 23.4989C114.898 23.1863 115.003 22.8793 115.169 22.5791C115.336 22.279 115.578 21.9947 115.899 21.7241C116.218 21.4558 116.655 21.2193 117.207 21.0158C117.76 20.8123 118.447 20.6509 119.266 20.5304C120.086 20.411 121.079 20.3507 122.244 20.3507C123.363 20.3507 124.322 20.4144 125.122 20.5406C125.921 20.6668 126.594 20.8362 127.14 21.0442C127.685 21.2557 128.121 21.4979 128.444 21.7753C128.767 22.0516 129.014 22.3392 129.187 22.6394C129.36 22.9395 129.474 23.2408 129.527 23.5433C129.581 23.848 129.607 24.1322 129.607 24.3982V27.576H122.852V23.0293H121.544V34.3306H122.852V30.7231H122.233V28.4151H129.609Z" fill="#61C8D1"/>
<path d="M21.6875 79.6805C21.7205 78.8346 21.8899 78.1194 22.1923 77.5362C22.4947 76.9529 22.9052 76.4822 23.4202 76.123C23.9375 75.7637 24.5446 75.5045 25.2439 75.3476C25.9431 75.1907 26.6991 75.1122 27.5121 75.1122H28.8707V78.2104H27.3518C26.9982 78.2104 26.6423 78.2286 26.2819 78.2615C25.9215 78.2945 25.5929 78.3627 25.2928 78.4662C24.9926 78.5697 24.7425 78.7175 24.5378 78.9107C24.3354 79.104 24.2104 79.3621 24.1638 79.6816H21.6875V79.6805ZM24.1547 80.1807C24.1945 80.5207 24.307 80.7947 24.4901 81.005C24.6731 81.2153 24.9005 81.3802 25.1745 81.5007C25.4474 81.6201 25.7464 81.7008 26.0693 81.7406C26.3922 81.7804 26.7128 81.8008 27.0334 81.8008H34.8181C35.1375 81.8008 35.4593 81.7804 35.7833 81.7406C36.1062 81.7008 36.4041 81.6212 36.677 81.5007C36.9498 81.3813 37.1795 81.2153 37.3625 81.005C37.5456 80.7947 37.657 80.5207 37.6968 80.1807H40.1549C40.1287 81.1005 39.9457 81.8634 39.6103 82.4739C39.2749 83.0833 38.8303 83.5733 38.2823 83.9428C37.732 84.3124 37.0942 84.5739 36.3677 84.7273C35.6412 84.8808 34.8692 84.9581 34.0495 84.9581H27.8145C26.9823 84.9581 26.1989 84.8808 25.4656 84.7273C24.7322 84.5739 24.0921 84.3135 23.5419 83.9428C22.9938 83.5733 22.555 83.081 22.2287 82.4682C21.9024 81.8554 21.7228 81.0937 21.6886 80.1807H24.1547ZM37.6854 79.6805C37.6388 79.361 37.516 79.1029 37.3159 78.9096C37.1158 78.7163 36.8668 78.5685 36.5667 78.4651C36.2665 78.3616 35.9357 78.2922 35.5719 78.2558C35.2103 78.2195 34.8442 78.2013 34.4781 78.2013H32.7795V75.1122H34.1484C34.9215 75.1259 35.6628 75.2043 36.3711 75.3476C37.0817 75.4908 37.7104 75.7364 38.2607 76.082C38.8087 76.4288 39.2544 76.8927 39.5944 77.4759C39.9343 78.0592 40.1208 78.7936 40.1537 79.6805H37.6854Z" fill="#61C8D1"/>
<path d="M21.6875 68.1385C21.7205 67.2255 21.9013 66.4615 22.2276 65.8453C22.5539 65.2291 22.9927 64.7322 23.5407 64.3559C24.091 63.9796 24.7311 63.7124 25.4599 63.5521C26.1909 63.3918 26.9743 63.3122 27.8134 63.3122H34.0484C34.8681 63.3122 35.6401 63.3918 36.3666 63.5521C37.0931 63.7124 37.7298 63.9784 38.2812 64.3514C38.8292 64.7243 39.2737 65.2188 39.6091 65.8351C39.9457 66.4513 40.1276 67.2187 40.1537 68.1374H37.6957C37.6559 67.7906 37.5456 67.5098 37.366 67.2938C37.1863 67.0766 36.9623 66.9095 36.6906 66.7901C36.4223 66.6707 36.1233 66.5877 35.797 66.5445C35.4707 66.5013 35.1478 66.4786 34.8272 66.4786H27.0334C26.7139 66.4786 26.391 66.5013 26.0647 66.5445C25.7384 66.5877 25.4394 66.6707 25.1711 66.7946C24.9005 66.9174 24.6743 67.088 24.4912 67.304C24.3082 67.52 24.1956 67.7986 24.1558 68.1374H21.6875V68.1385ZM24.1547 68.6376C24.1945 68.9776 24.307 69.255 24.4901 69.4676C24.6731 69.6814 24.9005 69.8485 25.1745 69.9713C25.4474 70.0941 25.7464 70.1782 26.0693 70.2214C26.3922 70.2646 26.7128 70.2874 27.0334 70.2874H34.8272C35.1466 70.2874 35.4684 70.2646 35.7913 70.2214C36.1153 70.1782 36.4109 70.0963 36.6815 69.9758C36.9498 69.8564 37.1783 69.6882 37.3614 69.4722C37.5444 69.2561 37.6559 68.9764 37.6957 68.6376H40.1537C40.1276 69.5506 39.9502 70.3146 39.6239 70.9274C39.2976 71.5403 38.8633 72.0337 38.321 72.4066C37.7787 72.7795 37.1465 73.0467 36.4268 73.2059C35.7072 73.3662 34.9386 73.4458 34.1188 73.4458H27.8134C26.9811 73.4458 26.1978 73.3673 25.4644 73.2104C24.7311 73.0535 24.091 72.7886 23.5407 72.4157C22.9927 72.0428 22.5539 71.5482 22.2276 70.932C21.9013 70.3158 21.7216 69.5506 21.6875 68.6376H24.1547Z" fill="#61C8D1"/>
<path d="M37.7004 56.0082C37.6799 55.6216 37.5844 55.3215 37.4105 55.1032C37.2377 54.8883 36.9853 54.7257 36.6567 54.6188C36.3258 54.512 35.9143 54.4483 35.4174 54.4233C34.9217 54.4005 34.3396 54.3892 33.6733 54.3892H22.0117V51.2319H33.6836C34.243 51.2319 34.7898 51.2535 35.3219 51.2978C35.8551 51.3399 36.3599 51.4251 36.8363 51.5525C37.3127 51.6787 37.7493 51.8526 38.1438 52.0721C38.5417 52.2915 38.8851 52.578 39.1784 52.9316C39.4718 53.2852 39.7026 53.7138 39.8731 54.2209C40.0414 54.7268 40.1335 55.3237 40.1471 56.0093H37.7004V56.0082ZM40.1494 56.5073C40.1289 57.194 40.0345 57.7897 39.864 58.2957C39.6957 58.8016 39.4627 59.2325 39.1705 59.5907C38.8771 59.9465 38.5304 60.2365 38.1313 60.4638C37.7311 60.6901 37.2957 60.8697 36.8227 60.9994C36.3497 61.129 35.8483 61.2165 35.3196 61.2631C34.7887 61.3097 34.2452 61.3347 33.6847 61.3347H22.0129V58.1672H33.6745C34.3271 58.1672 34.8967 58.1479 35.3833 58.1127C35.8699 58.0751 36.2781 57.999 36.6067 57.8819C36.9375 57.7659 37.1911 57.5999 37.3661 57.3816C37.5435 57.1656 37.6515 56.8745 37.6913 56.5073H40.1494Z" fill="#61C8D1"/>
<path d="M22.0117 45.3561V44.6967C22.0117 43.8974 22.1311 43.2187 22.3676 42.6638C22.6041 42.1067 22.9406 41.6531 23.376 41.3052C23.8138 40.9539 24.3379 40.7015 24.9507 40.5457C25.5635 40.3877 26.2468 40.3104 26.9995 40.3104C27.9386 40.3104 28.7333 40.415 29.3837 40.6253C30.0317 40.8345 30.5604 41.1472 30.9674 41.5644C31.3733 41.9794 31.67 42.4945 31.8565 43.1073C32.043 43.7201 32.1362 44.4295 32.1362 45.2356V45.355H29.868V45.0946C29.868 44.6887 29.81 44.3681 29.6929 44.1351C29.5769 43.902 29.3984 43.7258 29.1585 43.6052C28.9186 43.4859 28.6151 43.4086 28.249 43.3756C27.8829 43.3426 27.4497 43.3255 26.9494 43.3255C26.5436 43.3255 26.1741 43.3483 25.8455 43.3904C25.5146 43.4347 25.2349 43.5416 25.0064 43.7098C24.7756 43.8804 24.6005 44.1339 24.4755 44.4693C24.3538 44.807 24.2913 45.2674 24.2913 45.8541V45.355H22.0117V45.3561ZM39.8185 45.8553V49.0126H22.0117V45.8553H39.8185Z" fill="#61C8D1"/>
<path d="M21.6875 33.8945C21.7205 32.9816 21.9013 32.2175 22.2276 31.6002C22.5539 30.9851 22.9927 30.4883 23.5407 30.1119C24.091 29.7345 24.7311 29.4673 25.4599 29.307C26.1909 29.1467 26.9743 29.0671 27.8134 29.0671H34.0484C34.8681 29.0671 35.6401 29.1467 36.3666 29.307C37.0931 29.4673 37.7298 29.7333 38.2812 30.1062C38.8292 30.4792 39.2737 30.9737 39.6091 31.5911C39.9457 32.2062 40.1276 32.9747 40.1537 33.8934H37.6957C37.6559 33.5466 37.5456 33.2647 37.366 33.0498C37.1863 32.8326 36.9623 32.6644 36.6906 32.545C36.4223 32.4256 36.1233 32.3437 35.797 32.2994C35.4707 32.2573 35.1478 32.2346 34.8272 32.2346H27.0334C26.7139 32.2346 26.391 32.2573 26.0647 32.2994C25.7384 32.3437 25.4394 32.4256 25.1711 32.5507C24.9005 32.6723 24.6743 32.844 24.4912 33.0589C24.3082 33.276 24.1956 33.5546 24.1558 33.8934H21.6875V33.8945ZM24.1547 34.3937C24.1945 34.7336 24.307 35.0099 24.4901 35.2225C24.6731 35.4362 24.9005 35.6034 25.1745 35.7273C25.4474 35.8489 25.7464 35.9342 26.0693 35.9763C26.3922 36.0206 26.7128 36.0422 27.0334 36.0422H34.8272C35.1466 36.0422 35.4684 36.0206 35.7913 35.9763C36.1153 35.9342 36.4109 35.8524 36.6815 35.7318C36.9498 35.6113 37.1783 35.4431 37.3614 35.2282C37.5444 35.011 37.6559 34.7336 37.6957 34.3937H40.1537C40.1276 35.3066 39.9502 36.0695 39.6239 36.6823C39.2976 37.2951 38.8633 37.7886 38.321 38.1615C37.7787 38.5344 37.1465 38.8016 36.4268 38.9608C35.7072 39.1211 34.9386 39.2006 34.1188 39.2006H27.8134C26.9811 39.2006 26.1978 39.1222 25.4644 38.9664C24.7311 38.8084 24.091 38.5446 23.5407 38.1717C22.9927 37.7988 22.5539 37.3031 22.2276 36.688C21.9013 36.0707 21.7216 35.3066 21.6875 34.3948H24.1547V34.3937Z" fill="#61C8D1"/>
<path d="M38.7754 20.1147H22.0078V17.4872H39.8248V19.6952L38.7754 20.1147ZM22.0078 24.7011L23.047 24.2714H39.8248V26.9898H22.0078V24.7011ZM24.2555 23.7723L31.15 20.615H37.5157L30.3405 23.7723H24.2555Z" fill="#61C8D1"/>
</svg>
