<svg width="230" height="102" viewBox="0 0 230 102" fill="none" xmlns="http://www.w3.org/2000/svg">
<path d="M219.325 51.0293C219.325 45.3231 223.951 40.6964 229.658 40.6964V38.843C228.626 38.843 227.789 38.006 227.789 36.9746C227.789 35.9433 228.626 35.1063 229.658 35.1063V33.2207C228.626 33.2207 227.789 32.3836 227.789 31.3523C227.789 30.321 228.626 29.4839 229.658 29.4839V27.5983C228.626 27.5983 227.789 26.7624 227.789 25.7299C227.789 24.6986 228.626 23.8616 229.658 23.8616V21.976C228.626 21.976 227.789 21.139 227.789 20.1076C227.789 19.0751 228.626 18.2393 229.658 18.2393V16.3536C228.626 16.3536 227.789 15.5166 227.789 14.4853C227.789 13.4528 228.626 12.6169 229.658 12.6169V10.7313C228.626 10.7313 227.789 9.89423 227.789 8.8629C227.789 7.83156 228.626 6.99453 229.658 6.99453V5.2055C227.118 5.2055 225.059 3.14627 225.059 0.606445H60.8552C60.8564 0.655885 60.869 0.700726 60.869 0.750166C60.869 3.17157 58.9926 5.13422 56.6172 5.31473V6.99569C57.6485 6.99569 58.4856 7.83272 58.4856 8.86405C58.4856 9.89539 57.6485 10.7324 56.6172 10.7324V12.618C57.6485 12.618 58.4856 13.4539 58.4856 14.4864C58.4856 15.5178 57.6485 16.3548 56.6172 16.3548V18.2404C57.6485 18.2404 58.4856 19.0763 58.4856 20.1087C58.4856 21.1401 57.6485 21.9771 56.6172 21.9771V23.8627C57.6485 23.8627 58.4856 24.6998 58.4856 25.7311C58.4856 26.7636 57.6485 27.5995 56.6172 27.5995V29.4851C57.6485 29.4851 58.4856 30.3221 58.4856 31.3534C58.4856 32.3848 57.6485 33.2218 56.6172 33.2218V35.1074C57.6485 35.1074 58.4856 35.9444 58.4856 36.9758C58.4856 38.0071 57.6485 38.8442 56.6172 38.8442V40.7297C57.6485 40.7297 58.4856 41.5668 58.4856 42.5981C58.4856 43.6294 57.6485 44.4665 56.6172 44.4665V46.3521C57.6485 46.3521 58.4856 47.1891 58.4856 48.2205C58.4856 49.2518 57.6485 50.0888 56.6172 50.0888V51.9744C57.6485 51.9744 58.4856 52.8115 58.4856 53.8428C58.4856 54.8741 57.6485 55.7112 56.6172 55.7112V57.5968C57.6485 57.5968 58.4856 58.4338 58.4856 59.4652C58.4856 60.4965 57.6485 61.3335 56.6172 61.3335V63.2191C57.6485 63.2191 58.4856 64.0561 58.4856 65.0875C58.4856 66.1188 57.6485 66.9558 56.6172 66.9558V68.8415C57.6485 68.8415 58.4856 69.6785 58.4856 70.7098C58.4856 71.7412 57.6485 72.5782 56.6172 72.5782V74.4638C57.6485 74.4638 58.4856 75.3008 58.4856 76.3322C58.4856 77.3635 57.6485 78.2005 56.6172 78.2005V80.0862C57.6485 80.0862 58.4856 80.9232 58.4856 81.9545C58.4856 82.9859 57.6485 83.8229 56.6172 83.8229V85.7085C57.6485 85.7085 58.4856 86.5455 58.4856 87.5769C58.4856 88.6082 57.6485 89.4453 56.6172 89.4453V91.3308C57.6485 91.3308 58.4856 92.1679 58.4856 93.1992C58.4856 94.2306 57.6485 95.0676 56.6172 95.0676V96.8911C58.9949 97.0682 60.8748 99.0331 60.8748 101.456H225.058C225.058 98.9158 227.117 96.8566 229.657 96.8566V95.0676C228.625 95.0676 227.788 94.2306 227.788 93.1992C227.788 92.1679 228.625 91.3308 229.657 91.3308V89.4453C228.625 89.4453 227.788 88.6082 227.788 87.5769C227.788 86.5455 228.625 85.7085 229.657 85.7085V83.8229C228.625 83.8229 227.788 82.9859 227.788 81.9545C227.788 80.9232 228.625 80.0862 229.657 80.0862V78.2005C228.625 78.2005 227.788 77.3635 227.788 76.3322C227.788 75.3008 228.625 74.4638 229.657 74.4638V72.5782C228.625 72.5782 227.788 71.7412 227.788 70.7098C227.788 69.6785 228.625 68.8415 229.657 68.8415V66.9558C228.625 66.9558 227.788 66.1188 227.788 65.0875C227.788 64.0561 228.625 63.2191 229.657 63.2191V61.3657C223.95 61.3622 219.325 56.7356 219.325 51.0293Z" fill="#0F98B8"/>
<path d="M55.9237 6.99468V5.31603C53.5368 5.14702 51.6477 3.17864 51.6477 0.749189C51.6477 0.699749 51.6604 0.654909 51.6627 0.605469H4.75921C4.75921 3.1453 2.69998 5.20452 0.160156 5.20452V6.99356C1.19149 6.99356 2.02852 7.83058 2.02852 8.86192C2.02852 9.89326 1.19149 10.7303 0.160156 10.7303V12.6159C1.19149 12.6159 2.02852 13.4518 2.02852 14.4842C2.02852 15.5156 1.19149 16.3526 0.160156 16.3526V18.2382C1.19149 18.2382 2.02852 19.0741 2.02852 20.1066C2.02852 21.1379 1.19149 21.975 0.160156 21.975V23.8606C1.19149 23.8606 2.02852 24.6976 2.02852 25.7289C2.02852 26.7614 1.19149 27.5973 0.160156 27.5973V29.4829C1.19149 29.4829 2.02852 30.32 2.02852 31.3513C2.02852 32.3826 1.19149 33.2197 0.160156 33.2197V35.1053C1.19149 35.1053 2.02852 35.9423 2.02852 36.9736C2.02852 38.005 1.19149 38.842 0.160156 38.842V40.6966C5.86643 40.6966 10.4931 45.3232 10.4931 51.0295C10.4931 56.7358 5.86643 61.3624 0.160156 61.3624V63.2158C1.19149 63.2158 2.02852 64.0529 2.02852 65.0842C2.02852 66.1155 1.19149 66.9526 0.160156 66.9526V68.8382C1.19149 68.8382 2.02852 69.6752 2.02852 70.7066C2.02852 71.7379 1.19149 72.5749 0.160156 72.5749V74.4605C1.19149 74.4605 2.02852 75.2975 2.02852 76.3289C2.02852 77.3602 1.19149 78.1973 0.160156 78.1973V80.0829C1.19149 80.0829 2.02852 80.9199 2.02852 81.9512C2.02852 82.9826 1.19149 83.8196 0.160156 83.8196V85.7052C1.19149 85.7052 2.02852 86.5422 2.02852 87.5736C2.02852 88.6049 1.19149 89.4419 0.160156 89.4419V91.3276C1.19149 91.3276 2.02852 92.1646 2.02852 93.1959C2.02852 94.2273 1.19149 95.0643 0.160156 95.0643V96.8533C2.69998 96.8533 4.75921 98.9126 4.75921 101.452H51.6535C51.6535 99.0252 53.5402 97.058 55.9237 96.8867V95.0643C54.8923 95.0643 54.0553 94.2273 54.0553 93.1959C54.0553 92.1646 54.8923 91.3276 55.9237 91.3276V89.4419C54.8923 89.4419 54.0553 88.6049 54.0553 87.5736C54.0553 86.5411 54.8923 85.7052 55.9237 85.7052V83.8196C54.8923 83.8196 54.0553 82.9826 54.0553 81.9512C54.0553 80.9199 54.8923 80.0829 55.9237 80.0829V78.1973C54.8923 78.1973 54.0553 77.3602 54.0553 76.3289C54.0553 75.2975 54.8923 74.4605 55.9237 74.4605V72.5749C54.8923 72.5749 54.0553 71.7379 54.0553 70.7066C54.0553 69.6752 54.8923 68.8382 55.9237 68.8382V66.9526C54.8923 66.9526 54.0553 66.1155 54.0553 65.0842C54.0553 64.0529 54.8923 63.2158 55.9237 63.2158V61.3302C54.8923 61.3302 54.0553 60.4932 54.0553 59.4619C54.0553 58.4305 54.8923 57.5935 55.9237 57.5935V55.7079C54.8923 55.7079 54.0553 54.8708 54.0553 53.8395C54.0553 52.8082 54.8923 51.9711 55.9237 51.9711V50.0855C54.8923 50.0855 54.0553 49.2485 54.0553 48.2172C54.0553 47.1858 54.8923 46.3488 55.9237 46.3488V44.4632C54.8923 44.4632 54.0553 43.6262 54.0553 42.5948C54.0553 41.5635 54.8923 40.7265 55.9237 40.7265V38.8409C54.8923 38.8409 54.0553 38.0038 54.0553 36.9725C54.0553 35.9412 54.8923 35.1041 55.9237 35.1041V33.2185C54.8923 33.2185 54.0553 32.3815 54.0553 31.3501C54.0553 30.3188 54.8923 29.4818 55.9237 29.4818V27.5961C54.8923 27.5961 54.0553 26.7603 54.0553 25.7278C54.0553 24.6964 54.8923 23.8594 55.9237 23.8594V21.9738C54.8923 21.9738 54.0553 21.1368 54.0553 20.1054C54.0553 19.073 54.8923 18.2371 55.9237 18.2371V16.3515C54.8923 16.3515 54.0553 15.5144 54.0553 14.4831C54.0553 13.4506 54.8923 12.6147 55.9237 12.6147V10.7291C54.8923 10.7291 54.0553 9.8921 54.0553 8.86076C54.0553 7.83172 54.8923 6.99468 55.9237 6.99468Z" fill="#0F98B8"/>
</svg>
