<svg width="175" height="102" viewBox="0 0 175 102" fill="none" xmlns="http://www.w3.org/2000/svg">
<path d="M170.059 94.6264C170.059 92.4442 171.829 90.6736 174.012 90.6736V87.6797C171.829 87.6797 170.059 85.9103 170.059 83.7269C170.059 81.5447 171.829 79.7741 174.012 79.7741V76.7802C171.829 76.7802 170.059 75.0108 170.059 72.8274C170.059 70.6452 171.829 68.8746 174.012 68.8746V65.883C171.829 65.883 170.059 64.1135 170.059 61.9302C170.059 59.7468 171.829 57.9774 174.012 57.9774V54.9835C171.829 54.9835 170.059 53.214 170.059 51.0307C170.059 48.8485 171.829 47.0779 174.012 47.0779V44.084C171.829 44.084 170.059 42.3145 170.059 40.1312C170.059 37.949 171.829 36.1784 174.012 36.1784V33.1844C171.829 33.1844 170.059 31.415 170.059 29.2316C170.059 27.0494 171.829 25.2788 174.012 25.2788V22.2849C171.829 22.2849 170.059 20.5155 170.059 18.3321C170.059 16.1499 171.829 14.3793 174.012 14.3793V11.3854C171.829 11.3854 170.059 9.61596 170.059 7.43261C170.059 5.24926 171.829 3.47981 174.012 3.47981V0.605469H0.976562V3.47981C3.15991 3.47981 4.92936 5.24926 4.92936 7.43261C4.92936 9.61481 3.15991 11.3854 0.976562 11.3854V14.3793C3.15991 14.3793 4.92936 16.1488 4.92936 18.3321C4.92936 20.5155 3.15991 22.2849 0.976562 22.2849V25.2788C3.15991 25.2788 4.92936 27.0483 4.92936 29.2316C4.92936 31.4138 3.15991 33.1844 0.976562 33.1844V36.1784C3.15991 36.1784 4.92936 37.9478 4.92936 40.1312C4.92936 42.3134 3.15991 44.084 0.976562 44.084V47.0779C3.15991 47.0779 4.92936 48.8473 4.92936 51.0307C4.92936 53.2129 3.15991 54.9835 0.976562 54.9835V57.9774C3.15991 57.9774 4.92936 59.7468 4.92936 61.9302C4.92936 64.1124 3.15991 65.883 0.976562 65.883V68.8769C3.15991 68.8769 4.92936 70.6463 4.92936 72.8297C4.92936 75.0131 3.15991 76.7825 0.976562 76.7825V79.7764C3.15991 79.7764 4.92936 81.5459 4.92936 83.7292C4.92936 85.9114 3.15991 87.682 0.976562 87.682V90.6759C3.15991 90.6759 4.92936 92.4454 4.92936 94.6287C4.92936 96.8121 3.15991 98.5815 0.976562 98.5815V101.456H174.012V98.5815C171.829 98.5792 170.059 96.8098 170.059 94.6264Z" fill="#2A617C"/>
</svg>
