<svg width="94" height="40" viewBox="0 0 94 40" fill="none" xmlns="http://www.w3.org/2000/svg">
<rect x="0.5" y="0.886719" width="93" height="38" rx="9.5" fill="white"/>
<rect x="0.5" y="0.886719" width="93" height="38" rx="9.5" stroke="#2E8B57"/>
<path d="M11.8864 13.7504L15.3409 23.5458H15.4773L18.9318 13.7504H20.4091L16.1364 25.3867H14.6818L10.4091 13.7504H11.8864ZM22.0398 25.3867V16.6594H23.3807V25.3867H22.0398ZM22.7216 15.2049C22.4602 15.2049 22.2348 15.1159 22.0455 14.9379C21.8598 14.7598 21.767 14.5458 21.767 14.2958C21.767 14.0458 21.8598 13.8318 22.0455 13.6538C22.2348 13.4757 22.4602 13.3867 22.7216 13.3867C22.983 13.3867 23.2064 13.4757 23.392 13.6538C23.5814 13.8318 23.6761 14.0458 23.6761 14.2958C23.6761 14.5458 23.5814 14.7598 23.392 14.9379C23.2064 15.1159 22.983 15.2049 22.7216 15.2049ZM29.4957 25.5685C28.6548 25.5685 27.9295 25.3829 27.3196 25.0117C26.7135 24.6367 26.2457 24.114 25.9162 23.4435C25.5904 22.7693 25.4276 21.9852 25.4276 21.0913C25.4276 20.1973 25.5904 19.4094 25.9162 18.7276C26.2457 18.042 26.7041 17.5079 27.2912 17.1254C27.8821 16.739 28.5715 16.5458 29.3594 16.5458C29.8139 16.5458 30.2628 16.6216 30.706 16.7731C31.1491 16.9246 31.5526 17.1708 31.9162 17.5117C32.2798 17.8488 32.5696 18.2958 32.7855 18.8526C33.0014 19.4094 33.1094 20.0951 33.1094 20.9094V21.4776H26.3821V20.3185H31.7457C31.7457 19.8261 31.6473 19.3867 31.4503 19.0004C31.2571 18.614 30.9806 18.3091 30.6207 18.0856C30.2647 17.8621 29.8442 17.7504 29.3594 17.7504C28.8253 17.7504 28.3632 17.8829 27.973 18.1481C27.5866 18.4094 27.2893 18.7504 27.081 19.1708C26.8726 19.5913 26.7685 20.042 26.7685 20.5231V21.2958C26.7685 21.9549 26.8821 22.5136 27.1094 22.9719C27.3404 23.4265 27.6605 23.7731 28.0696 24.0117C28.4787 24.2466 28.9541 24.364 29.4957 24.364C29.848 24.364 30.1662 24.3147 30.4503 24.2163C30.7382 24.114 30.9863 23.9625 31.1946 23.7617C31.4029 23.5572 31.5639 23.3034 31.6776 23.0004L32.973 23.364C32.8366 23.8034 32.6075 24.1897 32.2855 24.5231C31.9635 24.8526 31.5658 25.1102 31.0923 25.2958C30.6188 25.4776 30.0866 25.5685 29.4957 25.5685ZM37.1264 25.3867L34.4673 16.6594H35.8764L37.7628 23.3413H37.8537L39.7173 16.6594H41.1491L42.9901 23.3185H43.081L44.9673 16.6594H46.3764L43.7173 25.3867H42.3991L40.4901 18.6822H40.3537L38.4446 25.3867H37.1264ZM55.2173 25.5913C54.6643 25.5913 54.1624 25.4871 53.7116 25.2788C53.2609 25.0666 52.9029 24.7617 52.6378 24.364C52.3726 23.9625 52.2401 23.4776 52.2401 22.9094C52.2401 22.4094 52.3385 22.0041 52.5355 21.6935C52.7325 21.3791 52.9957 21.1329 53.3253 20.9549C53.6548 20.7769 54.0185 20.6443 54.4162 20.5572C54.8177 20.4663 55.2211 20.3943 55.6264 20.3413C56.1567 20.2731 56.5866 20.2219 56.9162 20.1879C57.2495 20.15 57.492 20.0875 57.6435 20.0004C57.7988 19.9132 57.8764 19.7617 57.8764 19.5458V19.5004C57.8764 18.9397 57.723 18.5041 57.4162 18.1935C57.1132 17.8829 56.6529 17.7276 56.0355 17.7276C55.3954 17.7276 54.8935 17.8678 54.5298 18.1481C54.1662 18.4284 53.9105 18.7276 53.7628 19.0458L52.4901 18.5913C52.7173 18.061 53.0204 17.6481 53.3991 17.3526C53.7817 17.0534 54.1984 16.8451 54.6491 16.7276C55.1037 16.6064 55.5507 16.5458 55.9901 16.5458C56.2704 16.5458 56.5923 16.5799 56.956 16.6481C57.3234 16.7125 57.6776 16.8469 58.0185 17.0515C58.3632 17.256 58.6491 17.5647 58.8764 17.9776C59.1037 18.3905 59.2173 18.9435 59.2173 19.6367V25.3867H57.8764V24.2049H57.8082C57.7173 24.3943 57.5658 24.5969 57.3537 24.8129C57.1416 25.0288 56.8594 25.2125 56.5071 25.364C56.1548 25.5155 55.7249 25.5913 55.2173 25.5913ZM55.4219 24.3867C55.9522 24.3867 56.3991 24.2826 56.7628 24.0742C57.1302 23.8659 57.4067 23.5969 57.5923 23.2674C57.7817 22.9379 57.8764 22.5913 57.8764 22.2276V21.0004C57.8196 21.0685 57.6946 21.131 57.5014 21.1879C57.312 21.2409 57.0923 21.2882 56.8423 21.3299C56.5961 21.3678 56.3556 21.4019 56.1207 21.4322C55.8897 21.4587 55.7022 21.4814 55.5582 21.5004C55.2098 21.5458 54.884 21.6197 54.581 21.7219C54.2817 21.8204 54.0393 21.9701 53.8537 22.1708C53.6719 22.3678 53.581 22.6367 53.581 22.9776C53.581 23.4435 53.7533 23.7958 54.098 24.0344C54.4465 24.2693 54.8878 24.3867 55.4219 24.3867ZM63.0057 13.7504V25.3867H61.6648V13.7504H63.0057ZM66.8026 13.7504V25.3867H65.4616V13.7504H66.8026Z" fill="#2E8B57"/>
<path d="M79 24.8867L84 19.8867L79 14.8867" stroke="#2E8B57" stroke-width="1.2" stroke-linecap="round" stroke-linejoin="round"/>
</svg>
